<svg width="60" height="60" viewBox="0 0 60 60" fill="none" xmlns="http://www.w3.org/2000/svg">
<rect x="0.5" y="0.5" width="59" height="59" rx="7.5" fill="#6E2CF4"/>
<rect x="0.5" y="0.5" width="59" height="59" rx="7.5" stroke="black"/>
<path fill-rule="evenodd" clip-rule="evenodd" d="M12.4622 6C9.03865 6 6.50542 8.99645 6.61882 12.2461C6.72763 15.3681 6.58628 19.4115 5.5683 22.709C4.5473 26.016 2.8205 28.111 0 28.38V31.4165C2.8205 31.6855 4.5473 33.7805 5.5683 37.0877C6.58628 40.385 6.72763 44.4285 6.61882 47.5505C6.50542 50.7997 9.03865 53.7965 12.4627 53.7965H47.5422C50.966 53.7965 53.4987 50.8002 53.3852 47.5505C53.2765 44.4285 53.4177 40.385 54.4357 37.0877C55.4572 33.7805 57.1795 31.6855 60 31.4165V28.38C57.1795 28.111 55.4572 26.016 54.4357 22.709C53.4177 19.412 53.2765 15.3681 53.3852 12.2461C53.4987 8.99695 50.966 6 47.5422 6H12.4622ZM40.678 35.4217C40.678 39.8965 37.3403 42.6103 31.8015 42.6103H22.3729C22.1032 42.6103 21.8445 42.503 21.6538 42.3123C21.4631 42.1215 21.3559 41.863 21.3559 41.5933V18.2034C21.3559 17.9337 21.4631 17.675 21.6538 17.4843C21.8445 17.2936 22.1032 17.1864 22.3729 17.1864H31.7477C36.366 17.1864 39.397 19.6881 39.397 23.5291C39.397 26.225 37.3582 28.6388 34.7603 29.0612V29.2022C38.2968 29.5903 40.678 32.039 40.678 35.4217ZM30.7735 20.4102H25.3973V28.0037H29.9253C33.4255 28.0037 35.3558 26.5943 35.3558 24.0748C35.3558 21.7139 33.696 20.4102 30.7735 20.4102ZM25.3973 31.017V39.3855H30.9713C34.6155 39.3855 36.546 37.923 36.546 35.1747C36.546 32.426 34.5615 31.0165 30.7367 31.0165L25.3973 31.017Z" fill="white"/>
</svg>
