<svg width="36" height="36" viewBox="0 0 36 36" fill="none" xmlns="http://www.w3.org/2000/svg">
<g clip-path="url(#clip0_277_91)">
<path d="M6.75 23.625V22.5H4.5V23.625C4.5 25.7136 5.32969 27.7166 6.80653 29.1935C8.28338 30.6703 10.2864 31.5 12.375 31.5H15.75V29.25H12.375C10.8832 29.25 9.45242 28.6574 8.39752 27.6025C7.34263 26.5476 6.75 25.1168 6.75 23.625Z" fill="#6F53E8"/>
<path d="M27 12.375V13.5H29.25V12.375C29.25 10.2864 28.4203 8.28338 26.9435 6.80653C25.4666 5.32969 23.4636 4.5 21.375 4.5H18V6.75H21.375C22.1137 6.75 22.8451 6.89549 23.5276 7.17818C24.2101 7.46086 24.8301 7.87519 25.3525 8.39752C25.8748 8.91985 26.2891 9.53995 26.5718 10.2224C26.8545 10.9049 27 11.6363 27 12.375Z" fill="#6F53E8"/>
<path d="M12.375 12.375H5.625C4.72989 12.375 3.87145 12.7306 3.23851 13.3635C2.60558 13.9964 2.25 14.8549 2.25 15.75V18H4.5V15.75C4.5 15.4516 4.61853 15.1655 4.82951 14.9545C5.04048 14.7435 5.32663 14.625 5.625 14.625H12.375C12.6734 14.625 12.9595 14.7435 13.1705 14.9545C13.3815 15.1655 13.5 15.4516 13.5 15.75V18H15.75V15.75C15.75 14.8549 15.3944 13.9964 14.7615 13.3635C14.1286 12.7306 13.2701 12.375 12.375 12.375Z" fill="#6F53E8"/>
<path d="M9 11.25C9.89002 11.25 10.76 10.9861 11.5001 10.4916C12.2401 9.99715 12.8169 9.29434 13.1575 8.47208C13.4981 7.64981 13.5872 6.74501 13.4135 5.8721C13.2399 4.99918 12.8113 4.19736 12.182 3.56802C11.5526 2.93869 10.7508 2.5101 9.87791 2.33647C9.00499 2.16283 8.10019 2.25195 7.27792 2.59254C6.45566 2.93314 5.75285 3.50991 5.25839 4.24994C4.76392 4.98996 4.5 5.85999 4.5 6.75C4.5 7.94348 4.97411 9.08807 5.81802 9.93198C6.66193 10.7759 7.80653 11.25 9 11.25ZM9 4.5C9.44501 4.5 9.88002 4.63196 10.25 4.8792C10.62 5.12643 10.9084 5.47783 11.0787 5.88896C11.249 6.3001 11.2936 6.7525 11.2068 7.18896C11.12 7.62541 10.9057 8.02632 10.591 8.34099C10.2763 8.65566 9.87541 8.86995 9.43895 8.95677C9.0025 9.04359 8.5501 8.99903 8.13896 8.82873C7.72783 8.65843 7.37643 8.37005 7.12919 8.00003C6.88196 7.63002 6.75 7.19501 6.75 6.75C6.75 6.15327 6.98705 5.58097 7.40901 5.15901C7.83097 4.73705 8.40326 4.5 9 4.5Z" fill="#6F53E8"/>
<path d="M30.375 28.125H23.625C22.7299 28.125 21.8714 28.4806 21.2385 29.1135C20.6056 29.7464 20.25 30.6049 20.25 31.5V33.75H22.5V31.5C22.5 31.2016 22.6185 30.9155 22.8295 30.7045C23.0405 30.4935 23.3266 30.375 23.625 30.375H30.375C30.6734 30.375 30.9595 30.4935 31.1705 30.7045C31.3815 30.9155 31.5 31.2016 31.5 31.5V33.75H33.75V31.5C33.75 30.6049 33.3944 29.7464 32.7615 29.1135C32.1286 28.4806 31.2701 28.125 30.375 28.125Z" fill="#6F53E8"/>
<path d="M22.5 22.5C22.5 23.39 22.7639 24.26 23.2584 25.0001C23.7529 25.7401 24.4557 26.3169 25.2779 26.6575C26.1002 26.9981 27.005 27.0872 27.8779 26.9135C28.7508 26.7399 29.5526 26.3113 30.182 25.682C30.8113 25.0526 31.2399 24.2508 31.4135 23.3779C31.5872 22.505 31.4981 21.6002 31.1575 20.7779C30.8169 19.9557 30.2401 19.2529 29.5001 18.7584C28.76 18.2639 27.89 18 27 18C25.8065 18 24.6619 18.4741 23.818 19.318C22.9741 20.1619 22.5 21.3065 22.5 22.5ZM29.25 22.5C29.25 22.945 29.118 23.38 28.8708 23.75C28.6236 24.12 28.2722 24.4084 27.861 24.5787C27.4499 24.749 26.9975 24.7936 26.561 24.7068C26.1246 24.62 25.7237 24.4057 25.409 24.091C25.0943 23.7763 24.88 23.3754 24.7932 22.939C24.7064 22.5025 24.751 22.0501 24.9213 21.639C25.0916 21.2278 25.38 20.8764 25.75 20.6292C26.12 20.382 26.555 20.25 27 20.25C27.5967 20.25 28.169 20.4871 28.591 20.909C29.0129 21.331 29.25 21.9033 29.25 22.5Z" fill="#6F53E8"/>
</g>
<defs>
<clipPath id="clip0_277_91">
<rect width="36" height="36" fill="white"/>
</clipPath>
</defs>
</svg>
