<svg width="60" height="60" viewBox="0 0 60 60" fill="none" xmlns="http://www.w3.org/2000/svg">
<rect x="0.5" y="0.5" width="59" height="59" rx="7.5" fill="#EE513B" fill-opacity="0.57"/>
<rect x="0.5" y="0.5" width="59" height="59" rx="7.5" stroke="black"/>
<path d="M4.12891 32.7255C2.6237 31.2202 2.6237 28.7798 4.12891 27.2746L27.2746 4.12891C28.7798 2.6237 31.2202 2.6237 32.7255 4.12891L55.8711 27.2746C57.3763 28.7798 57.3763 31.2202 55.8711 32.7255L32.7255 55.8711C31.2202 57.3763 28.7798 57.3763 27.2746 55.8711L4.12891 32.7255Z" fill="#EE513B" stroke="black"/>
<path d="M22.5728 8.90433L20.229 11.2482L26.2826 17.3018C26.0377 17.8272 25.9009 18.4131 25.9009 19.031C25.9009 20.7853 27.0031 22.282 28.5527 22.8666V37.6753C27.0031 38.2599 25.9009 39.7566 25.9009 41.5109C25.9009 43.7742 27.7358 45.6091 29.9992 45.6091C32.2625 45.6091 34.0974 43.7742 34.0974 41.5109C34.0974 39.9206 33.1915 38.5416 31.8676 37.8624V22.8868L37.6542 28.6735C37.4213 29.1882 37.2917 29.7597 37.2917 30.3614C37.2917 32.6248 39.1265 34.4596 41.3899 34.4596C43.6533 34.4596 45.4881 32.6248 45.4881 30.3614C45.4881 28.098 43.6533 26.2632 41.3899 26.2632C40.95 26.2632 40.5265 26.3324 40.1292 26.4607L33.9143 20.2458C34.0333 19.8621 34.0974 19.454 34.0974 19.031C34.0974 16.7676 32.2625 14.9328 29.9992 14.9328C29.5762 14.9328 29.1683 14.9969 28.7843 15.1158L22.5728 8.90433Z" fill="white" stroke="black"/>
</svg>
