<svg width="60" height="60" viewBox="0 0 60 60" fill="none" xmlns="http://www.w3.org/2000/svg">
<g clip-path="url(#clip0_145_339)">
<path d="M47.6712 0.82193H12.3288C5.97372 0.82193 0.82193 5.97372 0.82193 12.3288V47.6712C0.82193 54.0263 5.97372 59.1781 12.3288 59.1781H47.6712C54.0263 59.1781 59.1781 54.0263 59.1781 47.6712V12.3288C59.1781 5.97372 54.0263 0.82193 47.6712 0.82193Z" fill="white" stroke="black"/>
<path d="M52.451 27.0453H52.5902C52.7045 27.0453 52.7263 26.9653 52.7263 26.9186C52.7263 26.796 52.6421 26.796 52.5954 26.796H52.452L52.451 27.0453ZM52.2816 26.6526H52.5902C52.6962 26.6526 52.904 26.6526 52.904 26.8895C52.904 27.0547 52.798 27.0889 52.7346 27.1097C52.8583 27.118 52.8666 27.1991 52.8832 27.3134C52.8915 27.3851 52.905 27.5087 52.93 27.5503H52.7398C52.7346 27.5087 52.7055 27.2801 52.7055 27.2677C52.6931 27.2167 52.6754 27.1918 52.612 27.1918H52.4551V27.5513H52.2816V26.6526ZM51.9107 27.0993C51.9107 27.4713 52.211 27.7726 52.5798 27.7726C52.9518 27.7726 53.252 27.4651 53.252 27.0993C53.252 26.7263 52.9476 26.4302 52.5788 26.4302C52.2151 26.4302 51.9097 26.7222 51.9097 27.0983L51.9107 27.0993ZM53.3809 27.1014C53.3809 27.5419 53.0203 27.9014 52.5808 27.9014C52.1445 27.9014 51.7808 27.5461 51.7808 27.1014C51.7808 26.6484 52.1528 26.3014 52.5808 26.3014C53.012 26.3014 53.3798 26.6495 53.3798 27.1014H53.3809Z" fill="#689F63"/>
<path fill-rule="evenodd" clip-rule="evenodd" d="M17.2611 29.956C17.2611 29.7649 17.1603 29.5893 16.9953 29.4942L12.5945 26.9622C12.5202 26.9185 12.437 26.8957 12.3527 26.8926H12.3071C12.2228 26.8957 12.1396 26.9185 12.064 26.9622L7.66347 29.4942C7.49951 29.5898 7.39728 29.7654 7.39728 29.9566L7.40694 36.7765C7.40694 36.8711 7.45577 36.9594 7.53889 37.0061C7.61993 37.056 7.72176 37.056 7.8028 37.0061L10.419 35.5079C10.5842 35.4096 10.685 35.2359 10.685 35.0466V31.8605C10.685 31.6704 10.7857 31.4948 10.9504 31.4002L12.0642 30.7588C12.1469 30.711 12.2377 30.6873 12.3302 30.6873C12.4212 30.6873 12.5141 30.7108 12.5945 30.7587L13.7078 31.3999C13.8726 31.4945 13.9738 31.6701 13.9738 31.8602V35.0461C13.9738 35.2352 14.0759 35.4097 14.2403 35.5074L16.8548 37.0046C16.9369 37.0534 17.039 37.0534 17.1208 37.0046C17.2014 36.9578 17.2525 36.8695 17.2525 36.7749L17.2611 29.956ZM38.0272 33.5069C38.0272 33.5544 38.002 33.5983 37.9607 33.6218L36.4492 34.4931C36.4081 34.5167 36.3574 34.5167 36.3165 34.4931L34.8048 33.6218C34.7632 33.5982 34.7383 33.5543 34.7383 33.5069V31.7618C34.7383 31.7142 34.7632 31.6704 34.8037 31.6465L36.3144 30.7737C36.356 30.7498 36.4069 30.7498 36.4485 30.7737L37.9602 31.6465C38.0018 31.6704 38.0267 31.7142 38.0267 31.7618L38.0272 33.5069ZM38.4355 20.5816C38.353 20.5357 38.2527 20.5369 38.1712 20.5844C38.0902 20.6322 38.0401 20.7195 38.0401 20.814V27.5675C38.0401 27.634 38.0048 27.6953 37.9472 27.7285C37.8901 27.7618 37.8189 27.7618 37.7612 27.7285L36.6589 27.0936C36.4947 26.9986 36.2925 26.9986 36.1277 27.0936L31.7255 29.6343C31.561 29.7288 31.4595 29.9044 31.4595 30.0935V35.1762C31.4595 35.3664 31.561 35.5409 31.7255 35.6365L36.1277 38.1789C36.2921 38.2735 36.4945 38.2735 36.6594 38.1789L41.0616 35.6355C41.2258 35.5399 41.3276 35.3653 41.3276 35.1752V22.5078C41.3276 22.315 41.2226 22.1376 41.0543 22.0434L38.4355 20.5816ZM53.095 31.7159C53.2585 31.6209 53.3592 31.4455 53.3592 31.2564V30.0246C53.3592 29.8351 53.2584 29.6602 53.0946 29.5649L48.7204 27.0256C48.5552 26.93 48.3526 26.93 48.1874 27.0256L43.7862 29.5659C43.621 29.6615 43.5203 29.836 43.5203 30.0262V35.1068C43.5203 35.298 43.6231 35.4746 43.7883 35.5692L48.1614 38.0617C48.3225 38.1542 48.5199 38.1553 48.683 38.0649L51.3283 36.5947C51.4114 36.5479 51.4644 36.4596 51.4644 36.364C51.4644 36.2684 51.4135 36.1791 51.3304 36.1323L46.9022 33.591C46.8191 33.5442 46.7682 33.4559 46.7682 33.3613V31.7675C46.7682 31.6723 46.818 31.5847 46.9011 31.5373L48.2789 30.7424C48.3609 30.6947 48.4617 30.6947 48.5438 30.7424L49.9225 31.5373C50.0046 31.584 50.0555 31.6723 50.0555 31.7669V33.0199C50.0555 33.1145 50.1064 33.2028 50.1885 33.2506C50.2706 33.2973 50.3724 33.2973 50.4545 33.2495L53.095 31.7159Z" fill="#333333"/>
<path fill-rule="evenodd" clip-rule="evenodd" d="M48.3895 31.4782C48.4206 31.4598 48.4597 31.4598 48.4913 31.4782L49.336 31.9655C49.3676 31.9838 49.3869 32.0174 49.3869 32.0538V33.0294C49.3869 33.0658 49.3676 33.0994 49.336 33.1177L48.4913 33.605C48.4597 33.6234 48.4206 33.6234 48.3895 33.605L47.5453 33.1177C47.5131 33.0994 47.4933 33.0658 47.4933 33.0294V32.0538C47.4933 32.0174 47.5121 31.9838 47.5443 31.9655L48.3895 31.4782Z" fill="#689F63"/>
<path d="M24.1588 27.608L19.5911 30.2444C19.4203 30.3428 19.3151 30.525 19.3151 30.7221V35.9986C19.315 36.1958 19.4203 36.3779 19.5911 36.4763L24.1592 39.1148C24.33 39.2131 24.5402 39.2131 24.711 39.1148L29.2783 36.4763C29.4486 36.3776 29.5535 36.1956 29.5536 35.9986V30.7221C29.5536 30.5249 29.4481 30.3427 29.2772 30.2444L24.7106 27.608C24.5394 27.5097 24.3288 27.5097 24.1576 27.608" fill="url(#paint0_linear_145_339)"/>
<path d="M19.4283 36.3336C19.4726 36.3915 19.5278 36.4399 19.5909 36.4763L23.5092 38.7396L24.1618 39.1147C24.2582 39.1701 24.3691 39.1953 24.4799 39.1868C24.5166 39.1837 24.553 39.1771 24.5884 39.1669L29.4059 30.346C29.3684 30.3058 29.3252 30.2714 29.2775 30.2441L26.2866 28.517L24.7057 27.6073C24.6608 27.5818 24.6126 27.5624 24.5626 27.5498L19.4283 36.3336Z" fill="url(#paint1_linear_145_339)"/>
<path d="M24.3796 27.5373C24.3019 27.5452 24.2267 27.5692 24.1589 27.608L19.6042 30.2369L24.5156 39.1825C24.5848 39.1726 24.6514 39.1497 24.7119 39.1148L29.2795 36.4763C29.4191 36.3955 29.5165 36.2579 29.5463 36.0995L24.5395 27.5463C24.5027 27.5389 24.4653 27.5353 24.4278 27.5352C24.4126 27.5352 24.3974 27.536 24.3822 27.5374" fill="url(#paint2_linear_145_339)"/>
</g>
<defs>
<linearGradient id="paint0_linear_145_339" x1="763.901" y1="135.224" x2="200.429" y2="1022.94" gradientUnits="userSpaceOnUse">
<stop offset="0.3" stop-color="#3E863D"/>
<stop offset="0.5" stop-color="#55934F"/>
<stop offset="0.8" stop-color="#5AAD45"/>
</linearGradient>
<linearGradient id="paint1_linear_145_339" x1="59.2817" y1="959.794" x2="1066.96" y2="411.799" gradientUnits="userSpaceOnUse">
<stop offset="0.57" stop-color="#3E863D"/>
<stop offset="0.72" stop-color="#619857"/>
<stop offset="1" stop-color="#76AC64"/>
</linearGradient>
<linearGradient id="paint2_linear_145_339" x1="19.6042" y1="609.895" x2="1013.8" y2="609.895" gradientUnits="userSpaceOnUse">
<stop offset="0.16" stop-color="#6BBF47"/>
<stop offset="0.38" stop-color="#79B461"/>
<stop offset="0.47" stop-color="#75AC64"/>
<stop offset="0.7" stop-color="#659E5A"/>
<stop offset="0.9" stop-color="#3E863D"/>
</linearGradient>
<clipPath id="clip0_145_339">
<rect width="60" height="60" fill="white"/>
</clipPath>
</defs>
</svg>
