<svg width="60" height="60" viewBox="0 0 60 60" fill="none" xmlns="http://www.w3.org/2000/svg">
<g clip-path="url(#clip0_145_359)">
<path d="M47.6712 0.82193H12.3288C5.97371 0.82193 0.821915 5.97372 0.821915 12.3288V47.6712C0.821915 54.0263 5.97371 59.1781 12.3288 59.1781H47.6712C54.0263 59.1781 59.1781 54.0263 59.1781 47.6712V12.3288C59.1781 5.97372 54.0263 0.82193 47.6712 0.82193Z" fill="white" stroke="#091E2E"/>
<path d="M38.7574 41.3262C39.0243 39.1048 38.9444 38.7787 40.599 39.1388L41.019 39.1755C42.2914 39.2333 43.9559 38.9708 44.9338 38.5165C47.039 37.5396 48.2869 35.9091 46.2117 36.3372C41.477 37.3141 41.1516 35.7109 41.1516 35.7109C46.1511 28.293 48.241 18.8764 46.4368 16.5713C41.5165 10.2844 32.9996 13.2573 32.8571 13.3342L32.8116 13.3427C31.8761 13.1485 30.8292 13.0326 29.653 13.0135C27.5104 12.9781 25.8847 13.5752 24.6514 14.5103C24.6514 14.5103 9.45759 8.25063 10.1645 22.3825C10.3148 25.3888 14.4734 45.1302 19.4339 39.1673C21.247 36.987 22.9988 35.1434 22.9988 35.1434C23.8686 35.7211 24.9105 36.0162 26.0027 35.9101L26.0874 35.838C26.0608 36.1087 26.0724 36.3736 26.121 36.6871C24.8435 38.1149 25.2189 38.3655 22.6642 38.8912C20.0793 39.4237 21.5979 40.3721 22.5891 40.62C23.7911 40.9206 26.5716 41.3463 28.4506 38.7164L28.3758 39.0164C28.877 39.4176 28.8433 41.8988 28.9141 43.6714C28.9851 45.4444 29.1038 47.0987 29.4653 48.0742C29.8267 49.0494 30.2531 51.5616 33.6106 50.8421C36.4166 50.2423 38.5619 49.3769 38.7574 41.3262Z" fill="black"/>
<path d="M32.5174 52.5964C31.0325 52.5964 30.0654 52.022 29.4782 51.4674C28.5917 50.6309 28.2401 49.5534 28.03 48.9097L27.9392 48.6411C27.5162 47.4992 27.3727 45.8552 27.2877 43.7381C27.2748 43.4202 27.2659 43.0927 27.256 42.7455C27.2489 42.4915 27.2401 42.1729 27.2271 41.8397C26.6991 42.092 26.1346 42.2715 25.5399 42.3728C24.4929 42.5517 23.3674 42.4939 22.1939 42.2004C21.366 41.9934 20.5057 41.5642 20.0153 40.9015C18.5862 42.1532 17.223 41.9835 16.4803 41.7356C15.1702 41.2987 13.9977 40.0708 12.8957 37.9827C12.1105 36.495 11.3512 34.5568 10.6385 32.2214C9.39739 28.1546 8.60885 23.8712 8.5388 22.4648C8.31846 18.063 9.50349 14.915 12.0602 13.1091C16.0934 10.2602 22.2041 11.9356 24.4321 12.6963C25.9289 11.7941 27.6899 11.3552 29.6798 11.3868C30.7486 11.4041 31.7663 11.498 32.7116 11.6666C33.6977 11.3565 35.6454 10.9114 37.875 10.9393C41.983 10.9883 45.3871 12.5891 47.7187 15.5689C49.3828 17.6948 48.5599 22.1591 47.9217 24.6312C47.0233 28.1084 45.4493 31.8066 43.5159 35.026C44.0409 35.0298 44.8015 34.9669 45.8828 34.7435C48.0162 34.3031 48.6402 35.447 48.8095 35.9591C49.4879 38.0136 46.5391 39.5662 45.6193 39.9933C44.4408 40.5404 42.5192 40.8736 40.9455 40.8015L40.8768 40.7971L40.4634 40.7607L40.4226 41.1055L40.3831 41.4425C40.2774 45.5226 39.6945 48.1065 38.4952 49.8138C37.2381 51.6038 35.491 52.1053 33.952 52.4352C33.427 52.5474 32.9499 52.5964 32.5174 52.5964ZM29.3925 37.7467C30.3511 38.5138 30.435 39.9572 30.5102 42.6547C30.5197 42.9914 30.5285 43.31 30.5405 43.6075C30.5765 44.5086 30.6612 46.6185 30.9917 47.5101C31.0383 47.6363 31.0801 47.7641 31.1243 47.8998C31.4925 49.0273 31.6772 49.5928 33.2696 49.2524C34.6063 48.9658 35.2935 48.7087 35.8314 47.943C36.6131 46.8297 37.0504 44.5902 37.1307 41.2868L38.7571 41.3262L37.1419 41.1324L37.1895 40.7291C37.3442 39.3996 37.4558 38.4393 38.3443 37.8041C39.0573 37.2948 39.8697 37.3441 40.5168 37.4607C39.8057 36.9234 39.6092 36.2934 39.5568 36.0349L39.4212 35.3668L39.8023 34.8013C41.9979 31.5437 43.8083 27.5402 44.7699 23.8168C45.7581 19.991 45.4568 17.9593 45.1555 17.5751C41.1672 12.479 34.2513 14.5831 33.529 14.8218L33.4069 14.8878L32.7949 15.0017L32.4814 14.9368C31.617 14.7572 30.6567 14.6579 29.6275 14.6413C28.0102 14.6141 26.7055 14.9963 25.6358 15.8079L24.8935 16.3707L24.0322 16.016C22.1919 15.2635 16.7867 13.7507 13.9345 15.7709C12.3513 16.8923 11.6301 19.0896 11.7906 22.3019C11.8436 23.3625 12.5641 27.3773 13.7529 31.271C15.3956 36.6521 16.8884 38.4397 17.5117 38.6474C17.6205 38.6841 17.9027 38.4648 18.1836 38.1275C20.0096 35.9312 21.7468 34.1001 21.8199 34.0233L22.7618 33.0321L23.9006 33.7887C24.3596 34.0937 24.8659 34.2667 25.3859 34.2994L28.1017 31.9831L27.7083 35.9982C27.6995 36.0883 27.695 36.2111 27.7304 36.4389L27.8487 37.1999L27.3353 37.7739L27.2761 37.8405L28.7682 38.5291L29.3925 37.7467Z" fill="black"/>
<path d="M46.2117 36.3372C41.4767 37.3141 41.1513 35.7109 41.1513 35.7109C46.1508 28.2926 48.2406 18.8757 46.4371 16.5713C41.5168 10.2847 32.9992 13.2576 32.8571 13.3348L32.8112 13.343C31.8758 13.1488 30.8288 13.0332 29.6519 13.0142C27.5094 12.9792 25.8843 13.5759 24.651 14.511C24.651 14.511 9.4569 8.25164 10.1635 22.3832C10.3138 25.3898 14.4724 45.1312 19.4329 39.1683C21.2459 36.988 22.9974 35.1444 22.9974 35.1444C23.8676 35.7221 24.9091 36.0172 26.001 35.9111L26.086 35.8391C26.0595 36.1097 26.0717 36.3746 26.12 36.6881C24.8421 38.1159 25.2175 38.3665 22.6628 38.8922C20.0779 39.4247 21.5965 40.3731 22.588 40.621C23.7897 40.9216 26.5705 41.3473 28.4492 38.7174L28.3741 39.0174C28.875 39.4186 29.2265 41.6261 29.1677 43.6272C29.1086 45.6283 29.0691 47.0024 29.4639 48.0756C29.8583 49.1487 30.2514 51.563 33.6096 50.8435C36.4156 50.2423 37.8696 48.6839 38.0722 46.0847C38.2157 44.2366 38.5405 44.51 38.5612 42.8577L38.822 42.0756C39.1226 39.5706 38.8696 38.7627 40.5987 39.1384L41.0186 39.1751C42.291 39.2329 43.9562 38.9704 44.9338 38.5161C47.0386 37.5399 48.2869 35.9091 46.2117 36.3372Z" fill="#336791"/>
<path d="M32.6871 51.5936C29.8879 51.5936 29.0011 49.3769 28.6383 48.4704C28.1072 47.1418 27.9926 41.9862 28.1109 37.7582C28.1191 37.4587 28.3673 37.222 28.6686 37.2312C28.9681 37.2393 29.2041 37.4889 29.1956 37.7885C29.0593 42.6649 29.2527 47.084 29.6458 48.0674C30.2592 49.6006 31.1896 50.9417 33.8198 50.3783C36.3166 49.8428 37.2517 48.8961 37.6683 46.4815C37.9879 44.6286 38.62 39.3574 38.6979 38.3173C38.7203 38.0187 38.9795 37.7939 39.2794 37.8167C39.5779 37.8392 39.802 38.0996 39.7799 38.3982C39.6986 39.4812 39.0696 44.7422 38.7377 46.6661C38.246 49.518 36.9746 50.8115 34.0472 51.4392C33.5498 51.5456 33.0979 51.5933 32.6871 51.5936ZM17.5093 40.7665C17.2424 40.7665 16.9999 40.7172 16.7898 40.6475C14.9716 40.0409 13.2398 37.0799 11.6423 31.8457C10.4263 27.8615 9.65582 23.7029 9.58816 22.3512C9.38787 18.3443 10.4195 15.5094 12.6553 13.9258C17.0781 10.7921 24.5184 13.7762 24.833 13.9048C25.1101 14.018 25.2434 14.3349 25.1298 14.6124C25.0166 14.8895 24.6997 15.0224 24.4225 14.9096C24.3508 14.8803 17.2162 12.022 13.2803 14.8126C11.3686 16.168 10.4909 18.6863 10.6715 22.2972C10.7283 23.4359 11.4481 27.4946 12.6798 31.5288C14.1059 36.2015 15.7289 39.15 17.1329 39.6182C17.3532 39.6917 18.0238 39.9151 18.9823 38.7624C20.7862 36.5923 22.4432 34.8601 22.4599 34.8431C22.6673 34.6268 23.0107 34.6197 23.227 34.8271C23.4432 35.0345 23.4507 35.378 23.2433 35.5939C23.227 35.6109 21.5951 37.3169 19.8168 39.4564C18.9745 40.4693 18.1672 40.7665 17.5093 40.7665ZM41.1176 36.1947C41.0132 36.1947 40.9078 36.1648 40.8146 36.1023C40.5664 35.9346 40.5004 35.5976 40.6681 35.3491C45.722 27.8496 47.496 18.788 45.9767 16.8464C44.0643 14.4029 41.3641 13.1267 37.9505 13.053C35.423 12.9986 33.4141 13.6439 33.0856 13.7565L33.003 13.7902C32.6728 13.8939 32.4195 13.713 32.3239 13.5015C32.2107 13.2512 32.3035 12.9554 32.5385 12.8129C32.5541 12.8037 32.6038 12.7826 32.6844 12.7531C33.2424 12.5487 35.2819 11.9366 37.808 11.9655C41.5851 12.0057 44.7053 13.462 46.8305 16.1779C47.836 17.4629 47.8384 20.4232 46.837 24.3003C45.8162 28.2532 43.8953 32.5013 41.5675 35.9557C41.4634 36.1111 41.292 36.1947 41.1176 36.1947ZM41.376 39.6665C40.513 39.6665 39.7394 39.5448 39.2763 39.2673C38.8003 38.982 38.7095 38.5944 38.6976 38.3887C38.5677 36.107 39.8265 35.7099 40.4685 35.5286C40.379 35.3933 40.2519 35.2341 40.1203 35.0699C39.7459 34.602 39.2331 33.9614 38.838 33.0032C38.7761 32.8536 38.5823 32.5057 38.3579 32.1028C37.1409 29.9204 34.6086 25.3792 36.2354 23.0537C36.9882 21.9775 38.4874 21.5538 40.6963 21.7902C40.0465 19.8105 36.9522 13.6178 29.6098 13.4974C27.4016 13.4607 25.5906 14.1397 24.2297 15.5138C21.183 18.5908 21.2932 24.1582 21.2949 24.2139C21.3027 24.5135 21.0664 24.7628 20.7668 24.7706C20.4672 24.7801 20.2183 24.5421 20.2102 24.2425C20.2034 23.9953 20.0898 18.1528 23.4589 14.7501C25.0356 13.1577 27.1112 12.3715 29.6278 12.4127C34.325 12.4899 37.3486 14.8779 39.0577 16.8675C40.9207 19.0359 41.8341 21.4277 41.9092 22.2261C41.9653 22.8198 41.5392 22.9385 41.4532 22.9562L41.2574 22.9606C39.0896 22.6134 37.6989 22.8545 37.1239 23.676C35.8865 25.4445 38.282 29.7402 39.3049 31.5747C39.566 32.0426 39.7544 32.3809 39.8408 32.5897C40.1767 33.4044 40.615 33.9519 40.967 34.3919C41.2767 34.7788 41.545 35.1145 41.6409 35.5082C41.6855 35.5864 42.3176 36.5215 46.0685 35.7473C47.0087 35.5534 47.5725 35.719 47.7449 36.2403C48.0839 37.2655 46.1817 38.4614 45.1287 38.9504C44.1851 39.389 42.679 39.6665 41.376 39.6665ZM39.7792 38.2992C39.8982 38.4193 40.4936 38.6263 41.7266 38.5733C42.8229 38.5264 43.979 38.288 44.6727 37.966C45.5598 37.5539 46.1522 37.0931 46.4589 36.7786L46.2889 36.8099C43.8906 37.305 42.1941 37.239 41.2468 36.6137C41.1791 36.5691 41.1183 36.5229 41.0632 36.4773C40.9605 36.5178 40.8656 36.5443 40.798 36.5633C40.2607 36.714 39.7051 36.8701 39.7792 38.2992ZM24.2865 41.3306C23.6908 41.3306 23.0638 41.2494 22.4235 41.0892C21.7601 40.9233 20.6417 40.4238 20.6587 39.6033C20.6781 38.6828 22.0168 38.4067 22.5207 38.303C24.3413 37.9279 24.4599 37.7776 25.0288 37.055C25.1948 36.8446 25.4012 36.5824 25.6827 36.2682C26.1006 35.8003 26.5573 35.5633 27.0401 35.5633C27.3764 35.5633 27.6522 35.6772 27.8345 35.753C28.4152 35.9938 28.8998 36.5759 29.099 37.272C29.2789 37.9 29.1929 38.5046 28.8576 38.9742C27.7569 40.5156 26.1761 41.3306 24.2865 41.3306ZM21.8308 39.6498C21.9943 39.7763 22.3221 39.9453 22.687 40.0365C23.2416 40.1752 23.7795 40.2456 24.2869 40.2456C25.8327 40.2456 27.0738 39.6056 27.9752 38.3434C28.1633 38.0802 28.1068 37.746 28.0565 37.5702C27.9511 37.2019 27.6893 36.867 27.4196 36.7551C27.2734 36.6946 27.152 36.6484 27.0405 36.6484C26.9806 36.6484 26.7984 36.6484 26.4917 36.9915C26.2325 37.2808 26.0459 37.5178 25.8816 37.7266C25.173 38.6263 24.8483 38.9317 22.74 39.3659C22.2256 39.4713 21.9617 39.5788 21.8308 39.6498ZM26.0027 37.1472C25.7395 37.1472 25.5083 36.9551 25.4671 36.6868C25.4535 36.5967 25.4447 36.5062 25.4399 36.4151C24.058 36.3892 22.7247 35.7962 21.7125 34.7401C20.4326 33.4048 19.8501 31.5546 20.1146 29.6644C20.402 27.6116 20.2945 25.7995 20.2367 24.826C20.2207 24.5553 20.2092 24.3598 20.2098 24.2245C20.2109 24.0528 20.2143 23.5975 21.7363 22.8259C22.2776 22.5515 23.363 22.0727 24.5487 21.95C26.5131 21.747 27.8079 22.6219 28.1956 24.4139C29.2419 29.2519 28.2785 31.3917 27.575 32.9546C27.4441 33.2456 27.3203 33.5204 27.2214 33.7866L27.134 34.0212C26.7623 35.0179 26.441 35.8789 26.5396 36.5219C26.5852 36.818 26.3818 37.0948 26.0857 37.1404L26.0027 37.1472ZM21.2983 24.3748L21.3194 24.7621C21.3792 25.7733 21.4908 27.6551 21.1888 29.815C20.9708 31.3741 21.4469 32.8957 22.4956 33.9893C23.3242 34.8536 24.4147 35.3307 25.5355 35.3307H25.5586C25.6841 34.802 25.8925 34.2436 26.1169 33.6421L26.2036 33.4088C26.3155 33.1082 26.4464 32.8172 26.5852 32.5091C27.2622 31.0048 28.1051 29.1322 27.1343 24.6434C26.9422 23.7542 26.476 23.2397 25.7099 23.0701C24.1362 22.7225 21.791 23.9062 21.2983 24.3748ZM24.5728 24.1446C24.5456 24.3364 24.9241 24.8484 25.4178 24.9168C25.9105 24.9858 26.3322 24.5853 26.359 24.3935C26.3859 24.2017 26.0078 23.9902 25.5141 23.9215C25.0207 23.8528 24.599 23.9528 24.5728 24.1446ZM25.5311 25.1055L25.3927 25.096C25.0866 25.0535 24.7772 24.8607 24.5654 24.5798C24.4909 24.4812 24.3695 24.2901 24.3936 24.1194C24.428 23.8691 24.7333 23.7192 25.2097 23.7192C25.3162 23.7192 25.427 23.727 25.5385 23.7427C25.799 23.7787 26.0408 23.8538 26.2193 23.9535C26.5287 24.1262 26.5515 24.319 26.5376 24.4186C26.4995 24.6951 26.0598 25.1055 25.5311 25.1055ZM24.7527 24.1765C24.768 24.2949 25.0611 24.6852 25.4426 24.7379L25.5314 24.7441C25.8837 24.7441 26.1469 24.4669 26.1778 24.3761C26.1452 24.3143 25.9187 24.1606 25.4892 24.1007C25.394 24.0871 25.3002 24.0806 25.2101 24.0806C24.934 24.0806 24.7874 24.1429 24.7527 24.1765ZM39.58 23.7532C39.6068 23.945 39.2287 24.4571 38.7353 24.5258C38.2423 24.5944 37.8203 24.1942 37.7931 24.0024C37.7672 23.8107 38.1453 23.5988 38.6384 23.5305C39.1315 23.4614 39.5528 23.5618 39.58 23.7532ZM38.6214 24.6237C38.1467 24.6237 37.737 24.2544 37.7033 24.0147C37.6642 23.727 38.1379 23.5084 38.6255 23.4407C38.7329 23.4257 38.8394 23.4183 38.9417 23.4183C39.3627 23.4183 39.6415 23.5417 39.6694 23.741C39.6874 23.8698 39.5885 24.0687 39.4181 24.2483C39.3055 24.3663 39.0692 24.5706 38.7472 24.6152L38.6214 24.6237ZM38.9421 23.5992C38.8482 23.5992 38.7503 23.6063 38.651 23.6199C38.161 23.6882 37.8686 23.8848 37.8828 23.9902C37.8992 24.1062 38.212 24.4431 38.6217 24.4431L38.7227 24.436C38.9903 24.3989 39.1913 24.2241 39.2872 24.1235C39.4378 23.9654 39.4977 23.8164 39.4905 23.7658C39.481 23.6984 39.3001 23.5992 38.9421 23.5992ZM40.2903 34.7669C40.1866 34.7669 40.0818 34.737 39.989 34.6751C39.7401 34.5085 39.6731 34.1715 39.8401 33.9226C40.9955 32.197 40.784 30.4373 40.5797 28.7354C40.4923 28.0104 40.4025 27.2607 40.4256 26.5411C40.4494 25.8009 40.5436 25.1902 40.6344 24.5995C40.7422 23.8997 40.8442 23.2387 40.802 22.4539C40.7857 22.1547 41.0152 21.8993 41.3145 21.883C41.6147 21.867 41.8694 22.0962 41.8854 22.3954C41.9337 23.2924 41.8184 24.0405 41.7069 24.7645C41.6208 25.3231 41.5318 25.9009 41.5103 26.5758C41.4896 27.2131 41.5709 27.8897 41.6569 28.6058C41.8745 30.4155 42.121 32.4666 40.7419 34.5262C40.6371 34.6823 40.4654 34.7669 40.2903 34.7669Z" fill="white"/>
</g>
<defs>
<clipPath id="clip0_145_359">
<rect width="60" height="60" rx="8" fill="white"/>
</clipPath>
</defs>
</svg>
