<svg width="60" height="60" viewBox="0 0 60 60" fill="none" xmlns="http://www.w3.org/2000/svg">
<g clip-path="url(#clip0_145_368)">
<path d="M0 0H60V60H0V0Z" fill="#222222"/>
<path d="M30 35C32.7614 35 35 32.7614 35 30C35 27.2386 32.7614 25 30 25C27.2386 25 25 27.2386 25 30C25 32.7614 27.2386 35 30 35Z" fill="#00D8FF"/>
<path d="M29.9536 19.7629C36.6888 19.7629 42.9464 20.7295 47.6637 22.3528C53.3477 24.3094 56.843 27.2757 56.843 29.9618C56.843 32.7607 53.1388 35.9128 47.0353 37.934C42.4208 39.4628 36.3472 40.262 29.9536 40.262C23.3975 40.262 17.1912 39.5125 12.5236 37.9174C6.61914 35.8995 3.06252 32.7077 3.06252 29.9618C3.06252 27.2973 6.40027 24.3542 12.0046 22.4009C16.7402 20.7511 23.1521 19.7629 29.9536 19.7629Z" stroke="#00D8FF" stroke-miterlimit="10"/>
<path d="M21.0744 24.8931C24.4387 19.0582 28.4032 14.1204 32.1671 10.8456C36.702 6.89936 41.0181 5.35401 43.3444 6.69542C45.7685 8.09319 46.649 12.8768 45.3507 19.1759C44.3691 23.938 42.0278 29.5971 38.8327 35.1368C35.5579 40.8158 31.8073 45.8183 28.0948 49.0648C23.3974 53.172 18.8542 54.6576 16.4765 53.2864C14.1685 51.9549 13.2863 47.5941 14.3923 41.7626C15.3275 36.8314 17.6753 30.7843 21.0744 24.8931Z" stroke="#00D8FF" stroke-miterlimit="10"/>
<path d="M21.0827 35.1484C17.7085 29.3185 15.4104 23.419 14.452 18.5226C13.298 12.6231 14.1137 8.11141 16.4384 6.76669C18.8609 5.36394 23.4439 6.99054 28.2524 11.2601C31.8886 14.4885 35.621 19.3434 38.8244 24.8781C42.1091 30.5521 44.5714 36.2991 45.5281 41.1358C46.7402 47.2575 45.7586 51.935 43.3825 53.3096C41.0761 54.6443 36.8579 53.2316 32.3578 49.36C28.5575 46.0885 24.4901 41.0346 21.0827 35.1484Z" stroke="#00D8FF" stroke-miterlimit="10"/>
</g>
<defs>
<clipPath id="clip0_145_368">
<rect width="60" height="60" rx="8" fill="white"/>
</clipPath>
</defs>
</svg>
